<mxfile host="app.diagrams.net" modified="2024-03-19T21:27:03.790Z" agent="Mozilla/5.0 (Windows NT 10.0; Win64; x64) AppleWebKit/537.36 (KHTML, like Gecko) Chrome/122.0.0.0 Safari/537.36" etag="sTavPnqyv4m-zeYBz-yK" version="24.0.7" type="device">
  <diagram name="Página-1" id="WKqVrBIlJXzV3_wZ4a9z">
    <mxGraphModel dx="882" dy="570" grid="1" gridSize="10" guides="1" tooltips="1" connect="1" arrows="1" fold="1" page="1" pageScale="1" pageWidth="827" pageHeight="1169" math="0" shadow="0">
      <root>
        <mxCell id="0" />
        <mxCell id="1" parent="0" />
        <mxCell id="wLsb01ijQMPe_ZdE6w9X-5" value="Usuario" style="shape=umlActor;verticalLabelPosition=bottom;verticalAlign=top;html=1;outlineConnect=0;" vertex="1" parent="1">
          <mxGeometry x="80" y="220" width="40" height="80" as="geometry" />
        </mxCell>
        <mxCell id="wLsb01ijQMPe_ZdE6w9X-6" value="Calcular peso ideal" style="ellipse;whiteSpace=wrap;html=1;" vertex="1" parent="1">
          <mxGeometry x="220" y="110" width="140" height="70" as="geometry" />
        </mxCell>
        <mxCell id="wLsb01ijQMPe_ZdE6w9X-7" value="Calcular tasa&amp;nbsp;&lt;div&gt;metabólica basal&lt;/div&gt;" style="ellipse;whiteSpace=wrap;html=1;" vertex="1" parent="1">
          <mxGeometry x="220" y="190" width="140" height="70" as="geometry" />
        </mxCell>
        <mxCell id="wLsb01ijQMPe_ZdE6w9X-8" value="Insertar Parámetros" style="ellipse;whiteSpace=wrap;html=1;" vertex="1" parent="1">
          <mxGeometry x="480" y="225" width="140" height="70" as="geometry" />
        </mxCell>
        <mxCell id="wLsb01ijQMPe_ZdE6w9X-9" value="Lanzar Excepción" style="ellipse;whiteSpace=wrap;html=1;" vertex="1" parent="1">
          <mxGeometry x="730" y="225" width="140" height="70" as="geometry" />
        </mxCell>
        <mxCell id="wLsb01ijQMPe_ZdE6w9X-10" value="&amp;lt;&amp;lt;include&amp;gt;&amp;gt;" style="endArrow=open;endSize=12;dashed=1;html=1;rounded=0;exitX=1;exitY=0.5;exitDx=0;exitDy=0;entryX=0.057;entryY=0.307;entryDx=0;entryDy=0;entryPerimeter=0;" edge="1" parent="1" source="wLsb01ijQMPe_ZdE6w9X-7" target="wLsb01ijQMPe_ZdE6w9X-8">
          <mxGeometry x="-0.0769" y="-15" width="160" relative="1" as="geometry">
            <mxPoint x="290" y="374.5" as="sourcePoint" />
            <mxPoint x="440" y="290" as="targetPoint" />
            <mxPoint as="offset" />
          </mxGeometry>
        </mxCell>
        <mxCell id="wLsb01ijQMPe_ZdE6w9X-12" value="" style="endArrow=none;html=1;rounded=0;entryX=0;entryY=0.5;entryDx=0;entryDy=0;" edge="1" parent="1" target="wLsb01ijQMPe_ZdE6w9X-6">
          <mxGeometry width="50" height="50" relative="1" as="geometry">
            <mxPoint x="130" y="260" as="sourcePoint" />
            <mxPoint x="440" y="270" as="targetPoint" />
          </mxGeometry>
        </mxCell>
        <mxCell id="wLsb01ijQMPe_ZdE6w9X-13" value="" style="endArrow=none;html=1;rounded=0;entryX=0;entryY=0.5;entryDx=0;entryDy=0;" edge="1" parent="1" target="wLsb01ijQMPe_ZdE6w9X-7">
          <mxGeometry width="50" height="50" relative="1" as="geometry">
            <mxPoint x="130" y="275" as="sourcePoint" />
            <mxPoint x="440" y="270" as="targetPoint" />
          </mxGeometry>
        </mxCell>
        <mxCell id="wLsb01ijQMPe_ZdE6w9X-14" value="&amp;lt;&amp;lt;include&amp;gt;&amp;gt;" style="endArrow=open;endSize=12;dashed=1;html=1;rounded=0;exitX=1;exitY=0.5;exitDx=0;exitDy=0;entryX=0.271;entryY=0.093;entryDx=0;entryDy=0;entryPerimeter=0;" edge="1" parent="1" source="wLsb01ijQMPe_ZdE6w9X-6" target="wLsb01ijQMPe_ZdE6w9X-8">
          <mxGeometry x="-0.0324" y="18" width="160" relative="1" as="geometry">
            <mxPoint x="390" y="335" as="sourcePoint" />
            <mxPoint x="541" y="315" as="targetPoint" />
            <mxPoint as="offset" />
          </mxGeometry>
        </mxCell>
        <mxCell id="wLsb01ijQMPe_ZdE6w9X-15" value="&amp;lt;&amp;lt;extend&amp;gt;&amp;gt;" style="endArrow=open;endSize=12;dashed=1;html=1;rounded=0;exitX=0;exitY=0.5;exitDx=0;exitDy=0;entryX=1;entryY=0.5;entryDx=0;entryDy=0;" edge="1" parent="1" source="wLsb01ijQMPe_ZdE6w9X-9" target="wLsb01ijQMPe_ZdE6w9X-8">
          <mxGeometry x="-0.125" y="-15" width="160" relative="1" as="geometry">
            <mxPoint x="390" y="375" as="sourcePoint" />
            <mxPoint x="471" y="320" as="targetPoint" />
            <mxPoint y="1" as="offset" />
          </mxGeometry>
        </mxCell>
        <mxCell id="wLsb01ijQMPe_ZdE6w9X-16" value="" style="rounded=0;whiteSpace=wrap;html=1;fillColor=none;" vertex="1" parent="1">
          <mxGeometry x="190" y="95" width="700" height="335" as="geometry" />
        </mxCell>
        <mxCell id="wLsb01ijQMPe_ZdE6w9X-17" value="Calculadora de Salud" style="text;html=1;align=center;verticalAlign=middle;whiteSpace=wrap;rounded=0;" vertex="1" parent="1">
          <mxGeometry x="460" y="100" width="140" height="30" as="geometry" />
        </mxCell>
        <mxCell id="wLsb01ijQMPe_ZdE6w9X-19" value="Calcular índice de&amp;nbsp;&lt;div&gt;masa corporal&lt;/div&gt;" style="ellipse;whiteSpace=wrap;html=1;" vertex="1" parent="1">
          <mxGeometry x="220" y="270" width="140" height="70" as="geometry" />
        </mxCell>
        <mxCell id="wLsb01ijQMPe_ZdE6w9X-20" value="&amp;lt;&amp;lt;include&amp;gt;&amp;gt;" style="endArrow=open;endSize=12;dashed=1;html=1;rounded=0;exitX=1;exitY=0.5;exitDx=0;exitDy=0;entryX=0.071;entryY=0.786;entryDx=0;entryDy=0;entryPerimeter=0;" edge="1" parent="1" source="wLsb01ijQMPe_ZdE6w9X-19" target="wLsb01ijQMPe_ZdE6w9X-8">
          <mxGeometry x="-0.0698" y="-22" width="160" relative="1" as="geometry">
            <mxPoint x="289" y="494.5" as="sourcePoint" />
            <mxPoint x="460" y="430" as="targetPoint" />
            <mxPoint as="offset" />
          </mxGeometry>
        </mxCell>
        <mxCell id="wLsb01ijQMPe_ZdE6w9X-21" value="" style="endArrow=none;html=1;rounded=0;entryX=0;entryY=0.5;entryDx=0;entryDy=0;" edge="1" parent="1" target="wLsb01ijQMPe_ZdE6w9X-19">
          <mxGeometry width="50" height="50" relative="1" as="geometry">
            <mxPoint x="130" y="290" as="sourcePoint" />
            <mxPoint x="439" y="390" as="targetPoint" />
          </mxGeometry>
        </mxCell>
        <mxCell id="wLsb01ijQMPe_ZdE6w9X-22" value="Calcular agua&lt;div&gt;corporal total&lt;/div&gt;" style="ellipse;whiteSpace=wrap;html=1;" vertex="1" parent="1">
          <mxGeometry x="220" y="350" width="140" height="70" as="geometry" />
        </mxCell>
        <mxCell id="wLsb01ijQMPe_ZdE6w9X-23" value="&amp;lt;&amp;lt;include&amp;gt;&amp;gt;" style="endArrow=open;endSize=12;dashed=1;html=1;rounded=0;exitX=1;exitY=0.5;exitDx=0;exitDy=0;entryX=0.254;entryY=0.957;entryDx=0;entryDy=0;entryPerimeter=0;" edge="1" parent="1" source="wLsb01ijQMPe_ZdE6w9X-22" target="wLsb01ijQMPe_ZdE6w9X-8">
          <mxGeometry x="0.1872" y="-22" width="160" relative="1" as="geometry">
            <mxPoint x="310" y="394.5" as="sourcePoint" />
            <mxPoint x="481" y="330" as="targetPoint" />
            <mxPoint as="offset" />
          </mxGeometry>
        </mxCell>
        <mxCell id="wLsb01ijQMPe_ZdE6w9X-24" value="" style="endArrow=none;html=1;rounded=0;entryX=0;entryY=0.5;entryDx=0;entryDy=0;" edge="1" parent="1" target="wLsb01ijQMPe_ZdE6w9X-22">
          <mxGeometry width="50" height="50" relative="1" as="geometry">
            <mxPoint x="130" y="310" as="sourcePoint" />
            <mxPoint x="460" y="290" as="targetPoint" />
          </mxGeometry>
        </mxCell>
      </root>
    </mxGraphModel>
  </diagram>
</mxfile>
